<?xml version="1.0" encoding="UTF-8"?>
<svg
  xmlns="http://www.w3.org/2000/svg"
  width="291"
  height="89"
  viewBox="0 0 291 89"
  fill="none"
>
  <g clip-path="url(#clip0_4_6937)">
    <path
      d="M54.2449 49.6006C50.9501 46.3057 50.8643 40.9859 54.0047 37.5881L54.4852 37.1076C57.5055 34.2933 62.2075 34.2933 65.2106 37.1419L74.0998 46.0312C75.3011 47.2324 77.2574 47.2324 78.4587 46.0312C79.6428 44.8471 79.6599 42.9251 78.493 41.7238L69.0546 32.2855C66.3604 29.5912 66.3604 25.2153 69.0546 22.521L69.9813 21.5944C71.0109 20.5647 71.0109 18.883 69.9813 17.8533C68.9688 16.8408 67.3729 16.8237 66.3261 17.7675L66.2403 17.8533L60.6459 23.4649L49.9204 34.1903C44.8237 39.287 44.8237 47.6443 49.9204 52.741L58.844 61.6646C59.8736 62.6942 61.5554 62.6942 62.585 61.6646C63.6147 60.6349 63.6147 58.9532 62.585 57.9235L54.2449 49.6006Z"
      fill="#4B4B4B"
    ></path>
    <path
      d="M86.1467 34.3962L82.869 31.1014L77.2403 25.4727C76.2106 24.443 74.5289 24.443 73.4992 25.4727C72.4696 26.5023 72.4696 28.1841 73.4992 29.2137L81.805 37.5366C84.8425 40.5569 85.1513 45.3104 82.7317 48.6911C82.4571 49.0686 82.1654 49.4461 81.8222 49.7894C78.7332 52.8783 73.7223 52.8783 70.6334 49.7894L62.156 41.312C60.9548 40.1107 58.9985 40.1107 57.7972 41.312C56.6131 42.4961 56.596 44.4181 57.7629 45.6193L66.8237 54.6802C69.6209 57.4773 69.6209 62.0249 66.8237 64.8221L66.0858 65.56C65.0562 66.5897 65.0562 68.2714 66.0858 69.3011C67.0983 70.3135 68.7457 70.3307 69.7925 69.3354L69.8269 69.3011L75.4556 63.6724L86.181 52.9469C91.2434 47.833 91.2434 39.4929 86.1467 34.3962Z"
      fill="#4B4B4B"
    ></path>
    <path
      d="M111.047 63.741C108.661 63.741 106.825 63.0717 105.538 61.716C104.251 60.3603 103.599 58.507 103.599 56.1216V41.2948C103.599 40.9859 103.359 40.7457 103.05 40.7457H100.802C100.441 40.7457 100.133 40.6255 99.8752 40.4025C99.6178 40.1622 99.4805 39.819 99.4805 39.3557V37.1934C99.4805 36.9188 99.6693 36.6957 99.9438 36.6614L103.548 36.078C103.771 36.0436 103.959 35.872 103.994 35.6489L105.315 28.5101C105.384 28.1497 105.555 27.8752 105.813 27.6864C106.07 27.4976 106.396 27.3947 106.791 27.3947H109.674C109.983 27.3947 110.223 27.6349 110.223 27.9438V35.5288C110.223 35.8377 110.463 36.078 110.772 36.078H116.933C117.242 36.078 117.482 36.3182 117.482 36.6271V40.1965C117.482 40.5054 117.242 40.7457 116.933 40.7457H110.772C110.463 40.7457 110.223 40.9859 110.223 41.2948V55.6755C110.223 56.5335 110.446 57.2028 110.875 57.6833C111.304 58.1638 111.871 58.404 112.591 58.404C113.003 58.404 113.346 58.3525 113.621 58.2496C113.895 58.1466 114.136 58.0436 114.342 57.9407C114.548 57.8377 114.736 57.7347 114.891 57.6318C115.045 57.5288 115.217 57.4773 115.371 57.4773C115.56 57.4773 115.732 57.5288 115.852 57.6318C115.972 57.7347 116.109 57.872 116.246 58.0608C116.264 58.078 116.264 58.0951 116.281 58.1123L117.997 60.8923C118.151 61.1326 118.083 61.4415 117.86 61.6131C116.984 62.2652 116.006 62.78 114.925 63.1232C113.69 63.5351 112.385 63.741 111.047 63.741Z"
      fill="#4B4B4B"
    ></path>
    <path
      d="M119.507 36.0609C119.456 35.9236 119.576 35.7691 119.713 35.7691H124.672C125.17 35.7691 125.599 35.8893 125.942 36.1123C126.285 36.3526 126.491 36.6443 126.594 37.0047L130.541 51.7114C130.764 52.518 130.936 53.3074 131.056 54.0796C131.125 54.5086 131.211 54.9548 131.279 55.3838C131.314 55.6069 131.64 55.624 131.708 55.401C131.828 54.9548 131.949 54.5086 132.086 54.0796C132.309 53.3074 132.549 52.518 132.789 51.7114L137.354 36.9532C137.457 36.5928 137.68 36.3011 138.006 36.0609C138.332 35.8206 138.71 35.7177 139.139 35.7177H142.056C142.537 35.7177 142.949 35.8378 143.257 36.0609C143.583 36.3011 143.789 36.5928 143.91 36.9532L148.423 51.986C148.663 52.7582 148.869 53.4961 149.058 54.234C149.161 54.6287 149.264 55.0234 149.349 55.401C149.401 55.624 149.727 55.624 149.778 55.3838C149.847 54.9548 149.933 54.5258 150.019 54.0967C150.173 53.3245 150.362 52.5351 150.602 51.7114L154.686 37.0047C154.772 36.6443 154.995 36.3526 155.339 36.1123C155.682 35.8721 156.076 35.7691 156.523 35.7691H161.207C161.362 35.7691 161.465 35.9064 161.413 36.0609L152.833 63.1576C152.799 63.2434 152.713 63.312 152.627 63.312H147.445C146.878 63.312 146.466 62.9173 146.209 62.1279L141.25 46.22C141.095 45.7052 140.941 45.1732 140.803 44.6584C140.752 44.4868 140.718 44.298 140.666 44.1264C140.615 43.9033 140.289 43.9033 140.237 44.1264C140.203 44.3152 140.151 44.5039 140.1 44.6927C139.98 45.2247 139.825 45.7567 139.671 46.2886L134.66 62.1451C134.402 62.9345 133.922 63.3292 133.218 63.3292H128.31C128.207 63.3292 128.139 63.2606 128.105 63.1748L119.507 36.0609Z"
      fill="#4B4B4B"
    ></path>
    <path
      d="M173.289 27.755C173.289 28.3213 173.168 28.8705 172.945 29.3682C172.705 29.8658 172.396 30.312 172.019 30.6895C171.641 31.0671 171.178 31.3588 170.663 31.5819C170.148 31.805 169.582 31.9251 168.998 31.9251C168.432 31.9251 167.883 31.8221 167.368 31.5819C166.853 31.3588 166.407 31.0671 166.047 30.6895C165.669 30.312 165.378 29.883 165.154 29.3682C164.931 28.8705 164.811 28.3385 164.811 27.755C164.811 27.1716 164.931 26.6053 165.154 26.0905C165.378 25.5756 165.669 25.1295 166.047 24.7519C166.424 24.3744 166.871 24.0827 167.368 23.8596C167.883 23.6365 168.415 23.5164 168.998 23.5164C169.582 23.5164 170.148 23.6365 170.663 23.8596C171.178 24.0827 171.641 24.3744 172.019 24.7519C172.396 25.1295 172.705 25.5756 172.945 26.0905C173.168 26.6053 173.289 27.1544 173.289 27.755ZM172.293 36.2667V62.8143C172.293 63.0889 172.07 63.312 171.796 63.312H166.167C165.892 63.312 165.669 63.0889 165.669 62.8143V36.2667C165.669 35.9922 165.892 35.7691 166.167 35.7691H171.796C172.07 35.7862 172.293 35.9922 172.293 36.2667Z"
      fill="#4B4B4B"
    ></path>
    <path
      d="M179.775 62.986V36.0952C179.775 35.9236 179.913 35.7692 180.101 35.7692H183.825C184.683 35.7692 185.232 36.1639 185.507 36.9532C185.507 36.9704 185.524 36.9876 185.524 37.0047L185.85 38.5835C185.902 38.8238 186.211 38.9267 186.382 38.7551C186.811 38.3433 187.257 37.9657 187.721 37.6053C188.339 37.142 188.991 36.7302 189.677 36.4041C190.363 36.0609 191.101 35.8035 191.891 35.6319C192.68 35.4603 193.538 35.3573 194.465 35.3573C195.975 35.3573 197.296 35.6147 198.463 36.1295C199.63 36.6444 200.591 37.3479 201.381 38.2746C202.153 39.2013 202.753 40.2996 203.148 41.5695C203.543 42.8565 203.749 44.2637 203.749 45.791V63.0032C203.749 63.1748 203.612 63.3292 203.423 63.3292H197.434C197.262 63.3292 197.108 63.1919 197.108 63.0032V45.791C197.108 44.1093 196.713 42.805 195.941 41.8784C195.168 40.9517 194.002 40.4883 192.44 40.4883C191.29 40.4883 190.226 40.7458 189.214 41.2606C188.253 41.7582 187.326 42.4275 186.468 43.2855C186.399 43.3542 186.365 43.4228 186.365 43.5086V62.9688C186.365 63.1405 186.228 63.2949 186.039 63.2949H180.05C179.93 63.3121 179.775 63.1748 179.775 62.986Z"
      fill="#4B4B4B"
    ></path>
    <path
      d="M221.167 35.3401C222.9 35.3401 224.496 35.6147 225.955 36.1638C227.413 36.7129 228.666 37.5367 229.73 38.6006C230.794 39.6646 231.601 40.9688 232.201 42.5133C232.785 44.0577 233.094 45.8253 233.094 47.8159C233.094 48.3136 233.076 48.7254 233.025 49.0686C232.973 49.3947 232.905 49.6521 232.785 49.8409C232.665 50.0296 232.51 50.1669 232.321 50.2356C232.133 50.3214 231.875 50.3557 231.566 50.3557H215.126C214.817 50.3557 214.56 50.6303 214.594 50.9392C214.852 53.4618 215.59 55.3494 216.825 56.585C218.147 57.9064 219.897 58.5757 222.094 58.5757C223.175 58.5757 224.101 58.4555 224.874 58.1981C225.646 57.9407 226.332 57.6661 226.916 57.3744C227.499 57.0655 228.014 56.7909 228.443 56.5507C228.889 56.2933 229.301 56.1732 229.713 56.1732C229.988 56.1732 230.211 56.2246 230.417 56.3276C230.605 56.4306 230.777 56.585 230.931 56.7909L232.579 58.8502C232.75 59.0562 232.733 59.3479 232.544 59.5538C231.892 60.2574 231.172 60.8752 230.382 61.3728C229.473 61.9563 228.512 62.4197 227.516 62.7629C226.521 63.1061 225.509 63.3635 224.479 63.5008C223.449 63.6381 222.454 63.7239 221.493 63.7239C219.571 63.7239 217.803 63.3978 216.156 62.7629C214.509 62.1279 213.084 61.1841 211.866 59.9485C210.647 58.7129 209.686 57.1685 209 55.3323C208.296 53.4961 207.953 51.3682 207.953 48.9657C207.953 47.0952 208.262 45.3276 208.863 43.663C209.463 42.0156 210.339 40.5741 211.471 39.3385C212.604 38.1201 213.994 37.142 215.624 36.4212C217.254 35.7005 219.108 35.3401 221.167 35.3401ZM221.304 40.0936C219.365 40.0936 217.855 40.6427 216.774 41.7239C215.796 42.702 215.144 44.0406 214.8 45.7395C214.732 46.0655 214.989 46.3744 215.315 46.3744H226.59C226.899 46.3744 227.139 46.117 227.122 45.8081C227.087 45.156 226.967 44.5382 226.796 43.9376C226.555 43.1825 226.212 42.5133 225.715 41.9298C225.234 41.3635 224.616 40.9002 223.895 40.5741C223.14 40.2652 222.282 40.0936 221.304 40.0936Z"
      fill="#4B4B4B"
    ></path>
  </g>
  <defs>
    <clipPath id="clip0_4_6937">
      <rect width="291" height="89" fill="white"></rect>
    </clipPath>
  </defs>
</svg>
